<svg xmlns="http://www.w3.org/2000/svg" viewBox="0 0 1200 630">
  <rect width="1200" height="630" fill="#07110f"/>
  <g stroke="#74eeb9" stroke-width="2" opacity=".62">
    <path d="M95 430 252 300 430 355 610 210 820 315 1030 160"/>
    <path d="M252 300 300 115 610 210 720 480 1030 160"/>
    <path d="M95 430 430 355 720 480 1030 160"/>
  </g>
  <g fill="#dbff8e">
    <circle cx="95" cy="430" r="7"/>
    <circle cx="252" cy="300" r="7"/>
    <circle cx="300" cy="115" r="7"/>
    <circle cx="430" cy="355" r="7"/>
    <circle cx="610" cy="210" r="7"/>
    <circle cx="720" cy="480" r="7"/>
    <circle cx="820" cy="315" r="7"/>
    <circle cx="1030" cy="160" r="7"/>
  </g>
  <text x="88" y="170" fill="#effaf5" font-family="Inter, Arial, sans-serif" font-size="74" font-weight="800">Netravax Technologies</text>
  <text x="92" y="235" fill="#a9c6bd" font-family="Inter, Arial, sans-serif" font-size="31">Enterprise networking, infrastructure and cybersecurity</text>
  <rect x="90" y="285" width="320" height="58" rx="8" fill="#74eeb9"/>
  <text x="118" y="323" fill="#07110f" font-family="Inter, Arial, sans-serif" font-size="24" font-weight="800">Secure digital infrastructure</text>
</svg>
